<?xml version="1.0"?>
<svg xmlns="http://www.w3.org/2000/svg" height="512px" viewBox="0 0 512 512" width="512px" class=""><g><path d="m241 181v30h47.695312c4.90625 0 9.507813 2.402344 12.320313 6.445312 2.796875 4.027344 3.457031 9.183594 1.742187 13.785157-1.21875 3.265625-1.757812 6.269531-1.757812 9.769531 0 16.539062 13.460938 30 30 30 16.535156 0 30-13.460938 30-30 0-3.5-.542969-6.503906-1.757812-9.769531-1.714844-4.601563-1.054688-9.757813 1.742187-13.785157 2.8125-4.042968 7.410156-6.445312 12.320313-6.445312h62.695312c8.285156 0 15-6.714844 15-15v-181c0-8.285156-6.714844-15-15-15h-195v61c33.089844 0 60 26.910156 60 60s-26.910156 60-60 60zm0 0" data-original="#000000" class="active-path" data-old_color="#000000" fill="#D4D4D4"/><path d="m121 151c33.089844 0 60 26.910156 60 60h30v-47.695312c0-4.90625 2.402344-9.507813 6.445312-12.320313 4.042969-2.808594 9.167969-3.457031 13.785157-1.742187 18.660156 6.929687 39.753906-8.203126 39.769531-28.242188-.015625-20.054688-21.460938-35.109375-39.726562-28.257812-4.613282 1.761718-9.800782 1.085937-13.8125-1.710938-4.042969-2.8125-6.460938-7.414062-6.460938-12.335938v-78.695312h-196c-8.285156 0-15 6.714844-15 15v196h61c0-33.089844 26.910156-60 60-60zm0 0" data-original="#000000" class="active-path" data-old_color="#000000" fill="#D4D4D4"/><path d="m316 512h181c8.285156 0 15-6.714844 15-15v-181c0-8.285156-6.714844-15-15-15h-46c0 33.089844-26.910156 60-60 60s-60-26.910156-60-60h-30v47.695312c0 4.921876-2.417969 9.519532-6.460938 12.332032-4.011718 2.785156-9.167968 3.457031-13.8125 1.714844-18.296874-6.871094-39.726562 8.203124-39.726562 28.257812 0 20.023438 21.035156 35.140625 39.769531 28.242188 4.601563-1.714844 9.726563-1.070313 13.785157 1.742187 4.042968 2.8125 6.445312 7.414063 6.445312 12.320313v63.695312c0 8.285156 6.714844 15 15 15zm0 0" data-original="#000000" class="active-path" data-old_color="#000000" fill="#D4D4D4"/><path d="m15 451h181c8.285156 0 15-6.714844 15-15v-45c-33.089844 0-60-26.910156-60-60s26.910156-60 60-60v-30h-47.695312c-10.4375 0-17.707032-10.445312-14.0625-20.230469 1.214843-3.265625 1.757812-6.269531 1.757812-9.769531 0-16.539062-13.460938-30-30-30s-30 13.460938-30 30c0 3.5.542969 6.503906 1.757812 9.769531 3.640626 9.777344-3.617187 20.230469-14.0625 20.230469h-78.695312v195c0 8.285156 6.714844 15 15 15zm0 0" data-original="#000000" class="active-path" data-old_color="#000000" fill="#D4D4D4"/></g> </svg>
